<svg width="184" height="38" viewBox="0 0 184 38" fill="none" xmlns="http://www.w3.org/2000/svg">
<path d="M39.0187 16.4522C38.8592 16.3991 38.7175 16.4522 38.5581 16.6117C38.3986 16.7711 38.2746 16.9483 38.1506 17.1431C37.7785 17.6569 37.4419 18.1707 37.1407 18.7022C36.8396 19.216 36.5561 19.7298 36.2726 20.2081C35.2096 21.9975 34.1998 23.7337 33.2431 25.3814C32.3218 26.9936 31.2588 28.5526 30.0895 30.094C29.558 30.1471 29.0443 30.2003 28.5305 30.2711C28.1761 30.3243 27.8218 30.3774 27.4675 30.4306C27.3966 30.1826 27.3612 29.9522 27.3257 29.7574C27.2372 29.3322 27.1663 28.8715 27.1486 28.3932C27.1131 27.9148 27.0954 27.4719 27.0954 27.0644C27.06 24.2298 27.2194 21.5369 27.5738 18.9502C27.9281 16.3636 28.3179 13.8302 28.7431 11.3321C31.4537 11.1727 34.1998 11.0132 36.999 10.8538C39.7982 10.6943 42.6152 10.6589 45.4321 10.7829C45.5915 10.8183 45.751 10.836 45.9636 10.836C46.1585 10.836 46.2825 10.712 46.3002 10.464C46.2471 10.3046 46.123 10.2337 45.9282 10.216C45.751 10.1983 45.5738 10.1983 45.4321 10.1983C42.6329 9.98565 39.8159 9.96794 36.999 10.1451C34.1643 10.3223 31.4537 10.464 28.8317 10.5526C28.9911 9.95022 29.1328 9.27699 29.2923 8.56833C29.4517 7.85967 29.5935 7.16872 29.7529 6.49549C29.7884 6.33604 29.8238 6.17659 29.8592 5.99942C29.9124 5.82226 29.9301 5.64509 29.9478 5.46793C29.9655 5.30848 29.9301 5.14902 29.8592 5.04272C29.7884 4.91871 29.6466 4.86556 29.434 4.86556C29.186 4.86556 28.9911 5.0073 28.8139 5.29076C28.6545 5.57423 28.5305 5.83997 28.4773 6.03485C28.1761 6.76123 27.9104 7.55848 27.6801 8.42659C27.4498 9.29471 27.2549 10.0388 27.06 10.6766C25.6072 10.7298 24.119 10.836 22.6309 10.9955C21.1427 11.1549 19.6722 11.2612 18.2549 11.3675C18.0777 11.403 17.8651 11.4207 17.6171 11.4207C17.369 11.4207 17.245 11.5447 17.245 11.7927C17.2804 12.0408 17.4045 12.1471 17.6348 12.1294C17.8651 12.1116 18.06 12.1116 18.2549 12.1116C19.743 12.0585 21.2135 11.9522 22.6663 11.7927C24.119 11.6333 25.5364 11.527 26.936 11.4738C26.5639 13.2101 26.2628 15.0172 25.997 16.9306C25.997 16.9483 25.997 16.966 25.997 16.9837C25.3238 17.6924 24.6328 18.3833 23.9596 19.0565C23.2509 19.7652 22.4891 20.403 21.7096 21.0231C21.2844 21.4129 20.806 21.8203 20.2745 22.2278C19.743 22.6353 19.1761 23.0605 18.556 23.4857C18.0423 23.8223 17.4222 24.1766 16.7135 24.531C16.0048 24.903 15.243 25.0625 14.4635 25.027C13.7548 24.9916 13.2765 24.7436 13.0107 24.2475C12.745 23.7692 12.6033 23.1845 12.6033 22.529C12.6033 21.8735 12.6918 21.2003 12.869 20.527C13.0462 19.8361 13.2411 19.2869 13.4537 18.8617C14.5167 19.0211 15.3848 18.8794 16.0403 18.4719C16.6958 18.0644 17.2982 17.5861 17.8474 17.0369C18.184 16.7002 18.5029 16.3282 18.8041 15.903C19.1052 15.4778 19.2824 15.0172 19.3533 14.5388C19.4064 13.8656 19.247 13.3872 18.8749 13.0861C18.5029 12.7849 17.9891 12.6431 17.3513 12.6786C16.1643 13.0152 15.243 13.5998 14.5698 14.4148C13.8966 15.2298 13.2942 16.1333 12.745 17.1077C12.497 17.5684 12.2666 18.1353 12.0186 18.7908C11.7706 19.464 11.5934 20.155 11.4517 20.8814C11.31 21.6077 11.2745 22.3341 11.31 23.0428C11.3631 23.7514 11.5403 24.407 11.8769 24.9739C12.0363 25.151 12.1781 25.3282 12.3021 25.5054C12.4438 25.6648 12.6033 25.8243 12.7804 25.9306C13.1702 26.1786 13.6131 26.3026 14.0737 26.3381C14.5521 26.3735 15.0127 26.3381 15.4733 26.2672C15.934 26.1963 16.3769 26.0723 16.8021 25.8951C17.2273 25.7357 17.5993 25.5585 17.936 25.3637C19.4241 24.5487 20.6997 23.6274 21.7627 22.6176C22.6486 21.8203 23.499 21.0408 24.3494 20.2436C24.8454 19.7652 25.3238 19.2869 25.8021 18.7731C25.6604 20.0841 25.5187 21.4129 25.4124 22.7947C25.3592 23.8046 25.3238 24.8322 25.3238 25.8774C25.3238 26.9227 25.3946 27.9326 25.5541 28.907C25.6427 29.527 25.7667 30.1294 25.9261 30.6963C25.8021 30.7141 25.6781 30.7495 25.5541 30.7672C22.1525 31.405 18.8927 32.2023 15.7922 33.1589C12.6918 34.1156 9.55601 35.0015 6.38474 35.8341C5.71151 36.0467 5.03828 36.2416 4.34734 36.4011C3.65639 36.5605 2.96544 36.6137 2.27449 36.5605C2.02646 36.3125 1.88473 36.029 1.81386 35.6924C1.76071 35.3558 1.72528 35.0192 1.72528 34.6826C1.72528 33.4956 1.83158 32.3617 2.04418 31.2987C2.25678 30.2357 2.46938 29.2082 2.68198 28.2337C3.47922 24.1058 4.43592 20.1195 5.55206 16.275C6.68592 12.4483 7.78435 8.62148 8.88278 4.83013C9.0068 4.49351 9.1131 4.13918 9.20168 3.74942C9.29026 3.37737 9.37885 2.9876 9.46743 2.58012C9.52058 2.20807 9.60916 1.83602 9.71546 1.41082C9.82176 1.00334 9.76861 0.613582 9.55601 0.241534C9.432 -0.00649821 9.18396 -0.059648 8.77648 0.0643681C8.38672 0.489566 8.03238 1.02106 7.69577 1.64114C7.37687 2.26122 7.09341 2.8813 6.84537 3.48367C6.68592 3.82028 6.57962 4.19233 6.52647 4.61753C6.47333 5.04273 6.59734 5.32619 6.93396 5.43249C6.13671 7.8951 5.3749 10.3577 4.6308 12.8203C3.8867 15.2829 3.19576 17.8164 2.55796 20.403C2.04418 22.281 1.54811 24.2298 1.1052 26.214C0.644569 28.1983 0.307954 30.3066 0.0953546 32.4857C-0.0286615 33.5133 -0.0286616 34.5054 0.0776379 35.4267C0.183937 36.3479 0.502836 37.0389 1.05205 37.4995C1.3178 37.7475 1.67213 37.8893 2.07961 37.9601C2.48709 38.0133 2.91229 38.0133 3.33749 37.9601C3.76269 37.907 4.18789 37.8007 4.6308 37.659C5.07371 37.5172 5.4812 37.4109 5.83553 37.3223C7.8375 36.8086 9.80404 36.2594 11.7529 35.6747C13.684 35.0901 15.6151 34.5231 17.5285 33.9385C19.8316 33.2298 22.1525 32.6097 24.4911 32.0428C25.058 31.9011 25.6427 31.7771 26.2273 31.653C26.5285 32.3263 27.0246 32.8223 27.6978 33.1235C27.999 33.1767 28.3179 33.1767 28.6545 33.1235C29.4163 32.7515 30.0364 32.2377 30.5324 31.5645C30.7096 31.3341 30.8691 31.0861 31.0462 30.8558C31.3297 30.8204 31.6132 30.7849 31.9143 30.7495C32.251 30.7495 32.623 30.7318 33.0482 30.6963C33.4734 30.6609 33.7214 30.4837 33.7746 30.1471C33.6506 29.8105 33.4025 29.6688 32.9951 29.7219C32.6053 29.7751 32.2332 29.8105 31.8966 29.8282C31.8435 29.8282 31.7726 29.8459 31.7195 29.8459C31.7903 29.7396 31.8789 29.6156 31.9498 29.5093C32.4104 28.8184 32.8356 28.1097 33.2431 27.3833C33.6506 26.6747 34.0758 25.966 34.501 25.2574C35.2628 23.9818 35.9714 22.6884 36.6447 21.3774C37.3179 20.0664 38.0266 18.7731 38.7884 17.4975C38.877 17.3735 39.001 17.1786 39.1604 16.9306C39.3022 16.7711 39.2667 16.5762 39.0187 16.4522ZM15.243 15.6195C15.8277 14.84 16.6249 14.2908 17.6702 13.9542C17.8474 13.9187 18.0068 13.9719 18.1308 14.0959C18.1663 14.7691 17.9891 15.2829 17.6348 15.655C17.2627 16.027 16.9261 16.3813 16.5895 16.7534C16.2174 17.09 15.8277 17.4089 15.4025 17.7101C14.9773 18.0113 14.4104 18.1707 13.7194 18.1707C14.1623 17.2317 14.6761 16.3813 15.243 15.6195ZM7.16427 4.44036C7.25285 4.29863 7.32372 4.17462 7.39459 4.0506C7.39459 4.13918 7.35915 4.2632 7.28829 4.38721C7.21742 4.52895 7.14656 4.67068 7.07569 4.81241C7.05797 4.70611 7.07569 4.56438 7.16427 4.44036ZM28.7254 31.5999C28.5659 31.7239 28.4065 31.7593 28.247 31.7416C28.0876 31.7239 27.9458 31.6176 27.8218 31.4227C28.2824 31.3341 28.7431 31.2633 29.2037 31.1924C29.0443 31.3519 28.8848 31.4936 28.7254 31.5999Z" fill="white"/>
<path d="M41.7648 7.00928C41.8534 6.97385 41.9597 6.86755 42.0837 6.69039C42.0305 5.99944 42.0305 5.27306 42.1014 4.52896C42.1723 3.78486 42.2431 3.05849 42.314 2.36754C42.562 2.11951 42.5974 1.83604 42.4557 1.51714C42.2963 1.19824 42.066 1.09195 41.7293 1.21596C41.4813 1.26911 41.3219 1.51714 41.251 1.94234C41.1801 2.36754 41.1093 2.79274 41.0384 3.21793C40.9852 3.64313 40.9321 4.10377 40.8967 4.58211C40.8612 5.06046 40.8435 5.48566 40.8435 5.82227C40.8789 6.12346 40.9498 6.40692 41.0738 6.69039C41.1978 6.97385 41.4282 7.08015 41.7648 7.00928Z" fill="white"/>
<path d="M41.2516 35.6748C41.2337 35.6927 41.2158 35.7106 41.1979 35.7106C41.2337 35.7106 41.2516 35.6927 41.2516 35.6748Z" fill="white"/>
<path d="M41.2161 35.7102C41.1982 35.7102 41.1803 35.7102 41.1624 35.7102C41.1624 35.7281 41.1803 35.7281 41.2161 35.7102Z" fill="white"/>
<path d="M55.6369 16.3636C55.3889 16.4876 55.1763 16.5939 54.9991 16.6825C54.3259 17.0191 53.6881 17.3734 53.068 17.7278C52.4479 18.0998 51.881 18.4719 51.3495 18.8616C50.5522 19.3754 49.8259 19.9423 49.1349 20.527C48.444 21.1116 47.7353 21.6963 46.9735 22.2455C46.7963 21.9975 46.5837 21.7672 46.3534 21.5368C46.1231 21.3065 45.8928 21.0762 45.6447 20.8282C45.4321 20.6156 45.1841 20.3853 44.9184 20.1195C44.6526 19.8538 44.4754 19.5703 44.4223 19.2337C44.3869 18.8971 44.4754 18.5782 44.6703 18.277C44.8652 17.9758 45.0601 17.7278 45.2373 17.5506C45.6625 17.0368 46.1231 16.6648 46.6014 16.4522C46.69 16.5762 46.7609 16.7179 46.7786 16.8597C46.814 17.0191 46.938 17.0723 47.1506 17.0368C47.3101 17.0368 47.4164 16.8774 47.4873 16.5408C47.5581 16.2041 47.5581 15.9207 47.4695 15.6726C47.4164 15.5132 47.3278 15.4069 47.2215 15.336C47.1152 15.2652 47.0266 15.1766 46.9735 15.088C46.7609 14.9994 46.5306 14.964 46.2825 14.9994C46.0345 15.0349 45.8042 15.0703 45.5916 15.1411C45.2018 15.3183 44.8475 15.5486 44.564 15.7967C44.2806 16.0624 43.9794 16.3459 43.6782 16.6825C43.3416 17.1077 43.0404 17.6038 42.7924 18.1707C42.5266 18.7376 42.5266 19.3577 42.7746 20.0132C42.8987 20.3853 43.0758 20.7219 43.3061 21.0231C43.5365 21.3242 43.7845 21.6077 44.0502 21.8912C44.316 22.1746 44.5995 22.4404 44.8652 22.6884C45.131 22.9542 45.379 23.2376 45.5916 23.5388C44.9892 24.0526 44.3691 24.6195 43.7491 25.2042C43.129 25.7888 42.5266 26.462 41.942 27.1884C41.4282 27.8262 40.9144 28.588 40.4361 29.4739C39.9577 30.3597 39.7451 31.3341 39.8514 32.3971C39.8868 32.9109 39.9931 33.3538 40.1703 33.7258C40.3475 34.0979 40.5955 34.4345 40.8967 34.7711C41.1447 34.9483 41.3928 35.1077 41.6762 35.2318C41.942 35.3558 42.2963 35.4266 42.7215 35.4621C43.6959 35.4975 44.5817 35.2318 45.3613 34.6825C46.1585 34.1333 46.814 33.5487 47.3278 32.9463C47.9125 32.2377 48.3554 31.4581 48.692 30.5723C49.0286 29.6865 49.1703 28.7121 49.1526 27.6491C49.1526 26.6747 48.9932 25.8065 48.6743 25.0447C48.3554 24.2829 47.9833 23.5742 47.5581 22.901C48.9223 21.714 50.3396 20.5801 51.8101 19.4817C52.3948 19.1097 52.9617 18.7376 53.5286 18.3656C54.0955 17.9935 54.7156 17.6392 55.3711 17.338C55.4243 17.2494 55.5306 17.1786 55.6369 17.1254C55.7609 17.0723 55.8849 17.0368 56.0089 16.9837C56.133 16.9305 56.2215 16.8774 56.2747 16.7711C56.3278 16.6825 56.3456 16.5585 56.3278 16.399C56.0975 16.2573 55.8672 16.2396 55.6369 16.3636ZM47.1684 28.0743C47.1152 28.7652 46.9912 29.4384 46.7609 30.1117C46.5306 30.7849 46.2294 31.3518 45.875 31.8479C45.4853 32.3617 45.0069 32.84 44.44 33.2829C43.8731 33.7258 43.253 33.9562 42.5975 33.9916C42.2254 33.9916 41.942 33.903 41.7294 33.7436C41.5168 33.5841 41.3219 33.3715 41.1447 33.1235C40.9676 32.5388 40.9144 31.9896 40.9853 31.4581C41.0561 30.9266 41.1979 30.4128 41.3928 29.9345C41.5876 29.4561 41.8357 28.9955 42.1191 28.588C42.4026 28.1806 42.6861 27.8085 42.9695 27.4719C43.4479 26.8695 43.9617 26.3026 44.4754 25.7888C44.9892 25.275 45.503 24.7967 46.0345 24.3715C46.0345 24.3361 46.0699 24.3006 46.1231 24.2298C46.1585 24.2298 46.1762 24.2475 46.1762 24.2829C46.566 24.7967 46.8495 25.3991 47.0266 26.0546C47.1506 26.7101 47.2038 27.3833 47.1684 28.0743Z" fill="white"/>
<path d="M72.4145 21.094C71.7413 20.527 70.6606 20.1018 69.1547 19.7829C68.3928 19.6235 67.755 19.4463 67.259 19.2692C66.7629 19.092 66.3731 18.8794 66.1074 18.6491C65.8239 18.4188 65.6468 18.1707 65.5405 17.8873C65.4342 17.6038 65.381 17.3026 65.381 16.9483V16.9129C65.381 16.5762 65.4519 16.2573 65.6113 15.9739C65.7708 15.6904 65.9657 15.4247 66.2491 15.1943C66.5326 14.964 66.8515 14.8046 67.2413 14.6628C67.631 14.5388 68.0562 14.468 68.5523 14.468C69.2609 14.468 69.9342 14.5743 70.5543 14.8046C71.1743 15.0349 71.7944 15.4069 72.4145 15.9384L73.0169 15.1766C72.3614 14.6451 71.6881 14.2554 71.0149 13.9896C70.3239 13.7239 69.5267 13.5999 68.5877 13.5999C67.9854 13.5999 67.4361 13.6884 66.9224 13.8656C66.4086 14.0428 65.9834 14.2731 65.6113 14.592C65.2393 14.8932 64.9558 15.2652 64.7432 15.6727C64.5306 16.0802 64.4243 16.5408 64.4243 17.0192V17.0546C64.4243 17.5506 64.5129 17.9936 64.6724 18.3656C64.8318 18.7554 65.0976 19.092 65.4342 19.3755C65.7885 19.6589 66.2314 19.9247 66.7983 20.1373C67.3476 20.3499 68.0208 20.5448 68.8003 20.7042C69.5444 20.8459 70.1468 21.0231 70.6074 21.2003C71.068 21.3774 71.4578 21.5723 71.7236 21.8026C72.007 22.033 72.1842 22.2633 72.2905 22.5467C72.3968 22.8125 72.4499 23.1314 72.4499 23.468V23.5034C72.4499 23.8755 72.3613 24.2121 72.2019 24.531C72.0424 24.8499 71.8121 25.1156 71.5287 25.346C71.2452 25.5763 70.8909 25.7534 70.5011 25.8775C70.0936 26.0015 69.6507 26.0723 69.1724 26.0723C68.694 26.0723 68.2511 26.0369 67.8436 25.9483C67.4361 25.8597 67.0464 25.7534 66.6743 25.594C66.3023 25.4345 65.9479 25.2396 65.5936 25.0093C65.2393 24.7613 64.885 24.4778 64.5306 24.1412L63.8928 24.8676C64.6724 25.5586 65.4696 26.0723 66.3023 26.4267C67.135 26.7633 68.0739 26.9404 69.1015 26.9404C69.7393 26.9404 70.3062 26.8519 70.8377 26.6747C71.3692 26.4975 71.8121 26.2672 72.1842 25.9483C72.5562 25.6471 72.8574 25.2751 73.07 24.8322C73.2826 24.3893 73.3889 23.9109 73.3889 23.3971V23.3617C73.4066 22.4227 73.07 21.6609 72.4145 21.094Z" fill="white"/>
<path d="M79.3417 14.6628H83.8594V26.7455H84.8338V14.6628H89.3338V13.7947H79.3417V14.6628Z" fill="white"/>
<path d="M100.885 13.7061L94.8436 26.7455H95.8358L97.4834 23.1136H105.119L106.767 26.7455H107.83L101.789 13.7061H100.885ZM97.9086 22.2632L101.328 14.769L104.729 22.2632H97.9086Z" fill="white"/>
<path d="M122.074 20.8282C122.535 20.6333 122.942 20.3852 123.279 20.0841C123.615 19.7829 123.881 19.4108 124.076 18.9856C124.271 18.5604 124.359 18.0821 124.359 17.5329V17.4797C124.359 17.0191 124.271 16.5762 124.094 16.151C123.917 15.7435 123.686 15.3715 123.367 15.0703C122.978 14.6805 122.464 14.3616 121.844 14.1313C121.224 13.901 120.515 13.7947 119.718 13.7947H114.279V26.7455H115.235V21.3774H119.434H119.47L123.598 26.7455H124.82L120.55 21.2179C121.1 21.1471 121.613 21.0053 122.074 20.8282ZM115.253 20.5093V14.6628H119.682C120.869 14.6628 121.791 14.9108 122.428 15.4246C123.084 15.9384 123.403 16.6293 123.403 17.4974V17.5329C123.403 18.0112 123.314 18.4187 123.119 18.7908C122.924 19.1628 122.659 19.464 122.34 19.712C122.003 19.96 121.613 20.1549 121.153 20.2967C120.692 20.4384 120.196 20.5093 119.647 20.5093H115.253Z" fill="white"/>
<path d="M130.436 14.6628H134.954V26.7455H135.928V14.6628H140.428V13.7947H130.436V14.6628Z" fill="white"/>
<path d="M165.763 21.3597C165.763 22.1392 165.657 22.8301 165.462 23.4148C165.267 23.9994 164.966 24.4955 164.594 24.903C164.222 25.2927 163.761 25.5939 163.23 25.7888C162.698 25.9837 162.113 26.09 161.458 26.09C160.076 26.09 158.995 25.6648 158.234 24.8321C157.454 23.9994 157.082 22.8124 157.082 21.2711V13.7947H156.108V21.3597C156.108 22.2809 156.232 23.0782 156.497 23.7691C156.763 24.4601 157.117 25.0447 157.596 25.5231C158.074 26.0014 158.623 26.3557 159.279 26.6038C159.934 26.8518 160.643 26.9581 161.423 26.9581C162.22 26.9581 162.928 26.8341 163.584 26.5861C164.239 26.338 164.789 25.9837 165.267 25.4876C165.728 25.0093 166.1 24.4069 166.365 23.6982C166.631 22.9896 166.755 22.1746 166.755 21.2534V13.7947H165.799V21.3597H165.763Z" fill="white"/>
<path d="M183.232 16.0801C183.001 15.6018 182.665 15.1766 182.239 14.8399C181.814 14.5033 181.301 14.2376 180.716 14.0604C180.131 13.8833 179.476 13.7947 178.767 13.7947H174.072V26.7455H175.029V21.9089H178.519C179.192 21.9089 179.848 21.8203 180.45 21.6431C181.052 21.466 181.602 21.2179 182.062 20.8636C182.523 20.527 182.895 20.0841 183.161 19.5703C183.426 19.0565 183.568 18.4541 183.568 17.7809V17.7455C183.586 17.1254 183.48 16.5762 183.232 16.0801ZM182.629 17.8518C182.629 18.3301 182.523 18.773 182.328 19.1805C182.133 19.5703 181.85 19.9246 181.513 20.1904C181.159 20.4738 180.734 20.6864 180.238 20.8282C179.741 20.9699 179.192 21.0585 178.59 21.0585H175.029V14.6805H178.696C179.281 14.6805 179.812 14.7514 180.291 14.8931C180.769 15.0348 181.176 15.2297 181.531 15.4955C181.867 15.7612 182.151 16.0801 182.328 16.4699C182.523 16.8596 182.612 17.3203 182.612 17.8341V17.8518H182.629Z" fill="white"/>
</svg>
